<svg xmlns="http://www.w3.org/2000/svg" width="14" height="15" viewBox="0 0 14 15"><g><g><path fill="#fff" d="M13.693 11.865L11.53 9.542c-.43-.46-1.144-.446-1.59.033l-1.09 1.17-.214-.129c-.69-.41-1.63-.97-2.622-2.034-.994-1.068-1.518-2.08-1.9-2.82l-.117-.225.731-.784.36-.386c.446-.48.46-1.245.03-1.706L2.953.338c-.43-.461-1.143-.447-1.59.033l-.61.657.016.018c-.204.28-.374.603-.501.95-.117.333-.19.65-.223.965-.287 2.542.796 4.864 3.732 8.017 4.06 4.355 7.33 4.027 7.472 4.01a3.446 3.446 0 0 0 1.784-.779l.013.013.618-.65c.445-.48.458-1.244.028-1.707z"/></g></g></svg>