<svg xmlns="http://www.w3.org/2000/svg" width="53" height="55" viewBox="0 0 53 55"><g><g><path fill="#6d5cad" d="M46.55 9.082c.646 0 1.173.525 1.173 1.172a1.174 1.174 0 0 1-2.347 0c0-.647.526-1.172 1.173-1.172zm.325 41.011c1.651 1.009 2.524 2.427 2.524 4.1a.807.807 0 0 1-.808.807h-6.027a3.28 3.28 0 0 1-3.088-2.181l-2.843-8.027c-.488 1.755-1.656 3.162-3.456 4.15 1.515.084 2.718.591 3.579 1.51 1.457 1.556 1.331 3.704 1.325 3.795a.807.807 0 0 1-.806.753H19.13c-1.654 0-3.204-.633-4.5-1.834-3.115-.302-6.237-1.824-8.824-4.31C2.958 46.123 1.07 42.554.347 38.535a.807.807 0 0 1 1.59-.285c1.469 8.153 7.847 12.954 13.104 13.332a.808.808 0 0 1 .513.234c1.043 1.043 2.246 1.571 3.575 1.571h17.286c-.087-.539-.306-1.268-.848-1.84-.629-.666-1.589-1.003-2.853-1.003H26.36a.807.807 0 0 1-.018-1.614c.93-.02 3.317-.166 5.38-1.069 2.393-1.048 3.557-2.702 3.557-5.058 0-1.19-.172-2.295-.512-3.284a.807.807 0 0 1 1.525-.53L41 52.28a1.662 1.662 0 0 0 1.565 1.105h5.104c-.221-.736-.757-1.371-1.602-1.896-.94-.583-1.913-.803-1.922-.806a.809.809 0 0 1-.635-.788v-2.654a.808.808 0 0 1 1.615 0v2.048a8.605 8.605 0 0 1 1.751.803zM1.606 35.147a.808.808 0 0 1-1.614.06c-.259-6.969 2.814-11.019 5.438-13.19 3.304-2.733 6.94-3.438 7.093-3.467a2.553 2.553 0 0 1 2.974 2.032 2.549 2.549 0 0 1-2.034 2.971c-.016.003-2.617.55-4.875 2.461-2.95 2.498-4.066 6.222-3.314 11.067.586 3.785 2.558 6.535 5.866 8.186-.614-5.89 1.769-12.956 8.767-15.888 1.82-.762 3.446-1.636 4.833-2.598a.809.809 0 0 1 1.124.203.806.806 0 0 1-.202 1.123c-1.48 1.026-3.206 1.955-5.13 2.76-4.738 1.986-9.134 7.703-7.586 15.565a.808.808 0 0 1-.271.772c-.453.382-1.002.072-1.462-.125-4.282-1.836-6.817-5.117-7.536-9.75-.843-5.439.458-9.66 3.867-12.546 2.597-2.198 5.491-2.79 5.613-2.814a.934.934 0 0 0 .752-1.089.934.934 0 0 0-1.089-.744c-.136.026-3.374.654-6.36 3.124-2.343 1.939-5.088 5.575-4.854 11.887zm51.387-22.9c.064.778-.321 2.908-.68 3.786-.89 2.183-2.605 3.532-4.957 3.9-1.028.161-1.683.52-1.944 1.066a1.535 1.535 0 0 0-.117.356l-.004.018c-.263 1.34.91 3.371 1.379 4.182l.096.168c.22.384 1.323 2.453 1.454 5.447.142 3.265-.9 6.33-3.096 9.112v3.733a.807.807 0 0 1-1.615 0v-4.016c0-.186.064-.366.182-.51 5.284-6.473 1.823-12.704 1.673-12.966l-.093-.162c-.142-.244-.322-.557-.51-.916a22.108 22.108 0 0 1-13.212-3.92 16.8 16.8 0 0 1-3.28 4.443.808.808 0 0 1-1.13-1.153c3.686-3.599 4.4-7.603 4.973-10.82.133-.744.258-1.447.411-2.086.97-4.05 3.67-5.675 4.692-6.156C38.865 1 43.857.05 44.073.01a.815.815 0 0 1 .951.794V5.04c1.436.193 3.65.639 4.326 1.602.16.23 2.87 3.746 3.29 4.526l.016.028c.19.354.292.635.325.884.007.056.007.112.012.168zm-20.77 7.781a20.493 20.493 0 0 0 11.822 3.813c-.214-.605-.372-1.248-.399-1.881-5.779-.323-9.16-2.57-10.737-3.98-.187.667-.41 1.353-.687 2.048zm14.883-1.689c3.03-.475 3.958-2.879 4.198-4.848a1.517 1.517 0 0 1-.393-2.075c-.572-.868-1.516-2.074-2.006-2.699a32.903 32.903 0 0 1-.879-1.15c-.275-.351-2.13-.831-3.89-1.007a.807.807 0 0 1-.727-.803v-3.89c-1.385.484-3.88 1.748-4.765 4.714a.806.806 0 0 1-.512.533c-.12.044-3.071 1.134-4.038 5.17a36.52 36.52 0 0 0-.391 1.993 63.507 63.507 0 0 1-.353 1.87c.35.386 1.125 1.149 2.394 1.916 1.583.957 4.266 2.107 8.187 2.295l.023-.054c.505-1.056 1.565-1.716 3.152-1.965z"/></g></g></svg>