<svg xmlns="http://www.w3.org/2000/svg" width="24" height="21" viewBox="0 0 24 21"><g><g><path fill="#d3d3d0" d="M18.65 15.296c.432.675.632 1.454.577 2.253a3.68 3.68 0 0 1-.88 2.153 3.674 3.674 0 0 1-1.987 1.203 3.676 3.676 0 0 1-2.312-.22 7.263 7.263 0 0 0-5.79-.022l-.05.022a3.67 3.67 0 0 1-2.312.22 3.674 3.674 0 0 1-1.988-1.203 3.681 3.681 0 0 1-.878-2.153c-.055-.8.144-1.578.576-2.253l2.602-4.064a5.817 5.817 0 0 1 4.92-2.694 5.818 5.818 0 0 1 4.92 2.694zm-14.343-4.07c-.316.123-.643.18-.97.18-1.276 0-2.54-.887-3.081-2.293-.678-1.767.035-3.691 1.59-4.29.773-.298 1.628-.229 2.406.194.74.404 1.325 1.085 1.646 1.92.322.837.345 1.735.065 2.531-.294.837-.882 1.461-1.656 1.759zm5.05-3.183c-1.944 0-3.526-1.804-3.526-4.021C5.831 1.804 7.413 0 9.356 0c1.944 0 3.526 1.804 3.526 4.022 0 2.217-1.582 4.02-3.526 4.02zm6.087.988c-1.693-.564-2.55-2.591-1.91-4.519.302-.914.896-1.676 1.67-2.146.812-.491 1.721-.608 2.563-.328.84.28 1.5.919 1.855 1.798.34.841.36 1.807.057 2.721-.527 1.587-1.909 2.62-3.327 2.62-.303 0-.608-.047-.907-.146zm7.424-.47c1.339.993 1.514 3.037.392 4.558-.716.967-1.786 1.493-2.815 1.493-.59 0-1.167-.173-1.656-.536-1.338-.992-1.513-3.036-.39-4.557 1.123-1.52 3.128-1.95 4.469-.958z"/></g></g></svg>